{"title":"Calvin Harris ft. Ellie Goulding - Outside (2014.EDM)","uid":11454141,"size":84090535,"categoryP":"video","categoryS":"music_videos","magnet":"?xt=urn:btih:9d173e0727e18e7ea404841ad924ac2af507699f&amp;dn=Calvin+Harris+ft.+Ellie+Goulding+-+Outside+%282014.EDM%29&amp;tr=udp%3A%2F%2Ftracker.openbittorrent.com%3A80&amp;tr=udp%3A%2F%2Fopen.demonii.com%3A1337&amp;tr=udp%3A%2F%2Ftracker.coppersurfer.tk%3A6969&amp;tr=udp%3A%2F%2Fexodus.desync.com%3A6969","seeders":36,"leechers":0,"uploader":"MeRaDil","files":-1,"time":1415918365,"description":"CALVIN HARRIS ft.ELLIE GOULDING - OUTSIDE\n\n\n &lt;a href=&quot;\nhttp://gifyu.com/images/CalvinHarris23f9a.png&quot; rel=&quot;nofollow&quot; target=&quot;_NEW&quot;&gt;\nhttp://gifyu.com/images/CalvinHarris23f9a.png&lt;/a&gt;\n\n\nMPEG4 MUSIC VID\nGeneral\nComplete name                            : Calvin Harris ft. Ellie Goulding - Outside\nFormat                                   : MPEG-4\nFormat profile                           : Base Media\nCodec ID                                 : isom\nFile size                                : 80.2 MiB\nDuration                                 : 3mn 45s\nOverall bit rate                         : 2 980 Kbps\nMusicVid name                            : Outside\nAlbum                                    : Motion\nPerformer                                : Calvin Harris ft. Ellie Goulding\nGenre                                    : EDM\nContentType                              : Music Video\nRecorded date                            : 2014\nISRC                                     : The Promo Bay\nCopyright                                : Calvin Harris\nCover                                    : Yes\nRating                                   : ***\nMake                                     : MeRaDil\noday                                     : 12-11-2014  UK\nartist url                               : http://www.calvinharris.co.uk\nlabel                                    : Fly Eye Records\nrelease                                  : UK - november 12 - 2014\nPart_ID                                  : Outside\n\nVideo\nID                                       : 1\nFormat                                   : AVC\nFormat/Info                              : Advanced Video Codec\nFormat profile                           : &lt;a class=&quot;__cf_email__&quot; href=&quot;/cdn-cgi/l/email-protection&quot; data-cfemail=&quot;e2aa8b858aa2aed6ccd2&quot;&gt;[email&amp;#160;protected]&lt;/a&gt;&lt;script cf-hash='f9e31' type=&quot;text/javascript&quot;&gt;\n/* &lt;![CDATA[ */!function(){try{var t=&quot;currentScript&quot;in document?document.currentScript:function(){for(var t=document.getElementsByTagName(&quot;script&quot;),e=t.length;e--;)if(t[e].getAttribute(&quot;cf-hash&quot;))return t[e]}();if(t&amp;&amp;t.previousSibling){var e,r,n,i,c=t.previousSibling,a=c.getAttribute(&quot;data-cfemail&quot;);if(a){for(e=&quot;&quot;,r=parseInt(a.substr(0,2),16),n=2;a.length-n;n+=2)i=parseInt(a.substr(n,2),16)^r,e+=String.fromCharCode(i);e=document.createTextNode(e),c.parentNode.replaceChild(e,c)}}}catch(u){}}();/* ]]&gt; */&lt;/script&gt;\nFormat settings, CABAC                   : Yes\nFormat settings, ReFrames                : 2 frames\nCodec ID                                 : avc1\nCodec ID/Info                            : Advanced Video Coding\nDuration                                 : 3mn 45s\nBit rate                                 : 2 717 Kbps\nWidth                                    : 1 920 pixels\nHeight                                   : 1 080 pixels\nDisplay aspect ratio                     : 16:9\nFrame rate mode                          : Variable\nFrame rate                               : 23.976 fps\nMinimum frame rate                       : 23.974 fps\nMaximum frame rate                       : 23.981 fps\nColor space                              : YUV\nChroma subsampling                       : 4:2:0\nBit depth                                : 8 bits\nScan type                                : Progressive\nBits/(Pixel*Frame)                       : 0.055\nStream size                              : 73.1 MiB (91%)\n\nAudio\nID                                       : 2\nFormat                                   : AAC\nFormat/Info                              : Advanced Audio Codec\nFormat profile                           : LC\nCodec ID                                 : 40\nDuration                                 : 3mn 45s\nBit rate mode                            : Constant\nBit rate                                 : 256 Kbps\nChannel(s)                               : 2 channels\nChannel positions                        : Front: L R\nSampling rate                            : 44.1 KHz\nCompression mode                         : Lossy\nStream size                              : 6.89 MiB (9%)\n\nCalvin Harris * Motion * Ellie Goulding\n &lt;a href=&quot;\nhttps://thepiratebay.se/user/MeRaDil&quot; rel=&quot;nofollow&quot; target=&quot;_NEW&quot;&gt;\nhttps://thepiratebay.se/user/MeRaDil&lt;/a&gt;\n\n:)","torrent":{"xt":"urn:btih:9d173e0727e18e7ea404841ad924ac2af507699f","amp;dn":"Calvin+Harris+ft.+Ellie+Goulding+-+Outside+%282014.EDM%29","amp;tr":["udp%3A%2F%2Ftracker.openbittorrent.com%3A80","udp%3A%2F%2Fopen.demonii.com%3A1337","udp%3A%2F%2Ftracker.coppersurfer.tk%3A6969","udp%3A%2F%2Fexodus.desync.com%3A6969"],"infoHash":"9d173e0727e18e7ea404841ad924ac2af507699f","infoHashBuffer":{"type":"Buffer","data":[157,23,62,7,39,225,142,126,164,4,132,26,217,36,172,42,245,7,105,159]},"announce":[],"urlList":[]}}